<?xml version="1.0" encoding="utf-8"?>
<!DOCTYPE svg PUBLIC "-//W3C//DTD SVG 1.1//EN" "http://www.w3.org/Graphics/SVG/1.1/DTD/svg11.dtd">
<svg xmlns="http://www.w3.org/2000/svg" xmlns:xlink="http://www.w3.org/1999/xlink" version="1.1" baseProfile="full" width="960" height="240" viewBox="0 0 960.00 240.00" enable-background="new 0 0 960.00 240.00" xml:space="preserve">
	<rect x="0.00016276" y="-0.000915527" fill="#2196F3" fill-opacity="1" stroke-width="0.2" stroke-linejoin="round" width="960" height="240.001"/>
	<g>
		<path fill="#FFFFFF" fill-opacity="1" stroke-width="0.2" stroke-linejoin="round" d="M 66.7825,217.831C 66.7825,216.883 66.4506,216.133 65.7869,215.581C 65.1231,215.028 63.9081,214.504 62.1419,214.008C 60.3756,213.511 59.0863,212.971 58.2738,212.386C 57.1188,211.558 56.5412,210.473 56.5412,209.131C 56.5412,207.828 57.0781,206.769 58.1519,205.953C 59.2256,205.136 60.5988,204.728 62.2713,204.728C 63.4038,204.728 64.4175,204.947 65.3125,205.384C 66.2075,205.822 66.9006,206.431 67.3919,207.213C 67.8831,207.994 68.1288,208.864 68.1288,209.824L 66.6775,209.824C 66.6775,208.652 66.2788,207.709 65.4813,206.997C 64.6838,206.284 63.6138,205.928 62.2713,205.928C 60.9663,205.928 59.9269,206.23 59.1531,206.834C 58.3794,207.438 57.9925,208.226 57.9925,209.198C 57.9925,210.098 58.3406,210.832 59.0369,211.399C 59.7331,211.967 60.8469,212.468 62.3781,212.901C 63.9094,213.335 65.0694,213.77 65.8581,214.206C 66.6469,214.643 67.2406,215.164 67.6394,215.772C 68.0381,216.379 68.2375,217.097 68.2375,217.924C 68.2375,219.229 67.7,220.276 66.625,221.065C 65.55,221.854 64.1338,222.248 62.3763,222.248C 61.1738,222.248 60.0706,222.033 59.0669,221.603C 58.0631,221.173 57.3013,220.572 56.7813,219.799C 56.2612,219.027 56.0013,218.141 56.0013,217.141L 57.4413,217.141C 57.4413,218.348 57.8906,219.301 58.7894,220C 59.6881,220.699 60.8838,221.048 62.3763,221.048C 63.7038,221.048 64.77,220.754 65.575,220.167C 66.38,219.579 66.7825,218.801 66.7825,217.831 Z "/>
		<path fill="#FFFFFF" fill-opacity="1" stroke-width="0.2" stroke-linejoin="round" d="M 76.4613,219.901L 76.555,220.264L 76.66,219.901L 82.0263,204.968L 83.6087,204.968L 77.2562,222.008L 75.8763,222.008L 69.5238,204.968L 71.095,204.968L 76.4613,219.901 Z "/>
		<path fill="#FFFFFF" fill-opacity="1" stroke-width="0.2" stroke-linejoin="round" d="M 98.4662,219.968C 97.9662,220.686 97.1831,221.245 96.1169,221.646C 95.0506,222.048 93.8575,222.248 92.5375,222.248C 91.2025,222.248 90.0156,221.928 88.9769,221.288C 87.9381,220.648 87.1331,219.743 86.5619,218.571C 85.9906,217.4 85.7012,216.057 85.6937,214.542L 85.6937,212.386C 85.6937,210.021 86.2913,208.153 87.4862,206.783C 88.6812,205.413 90.2875,204.728 92.305,204.728C 94.0625,204.728 95.4762,205.175 96.5462,206.069C 97.6162,206.963 98.2525,208.194 98.455,209.764L 97.015,209.764C 96.805,208.504 96.2956,207.55 95.4869,206.901C 94.6781,206.253 93.6212,205.928 92.3162,205.928C 90.7212,205.928 89.4594,206.496 88.5306,207.633C 87.6019,208.769 87.1375,210.371 87.1375,212.438L 87.1375,214.456C 87.1375,215.758 87.3581,216.908 87.7994,217.906C 88.2406,218.903 88.8731,219.676 89.6969,220.225C 90.5206,220.774 91.4675,221.048 92.5375,221.048C 93.78,221.048 94.8462,220.849 95.7362,220.452C 96.3162,220.189 96.7462,219.883 97.0262,219.533L 97.0262,215.048L 92.4437,215.048L 92.4437,213.848L 98.4662,213.848L 98.4662,219.968 Z "/>
		<path fill="#FFFFFF" fill-opacity="1" stroke-width="0.2" stroke-linejoin="round" d="M 159.501,219.901L 159.595,220.264L 159.7,219.901L 165.066,204.968L 166.649,204.968L 160.296,222.008L 158.916,222.008L 152.564,204.968L 154.135,204.968L 159.501,219.901 Z "/>
		<path fill="#FFFFFF" fill-opacity="1" stroke-width="0.2" stroke-linejoin="round" d="M 173.86,222.248C 172.783,222.248 171.808,221.981 170.937,221.448C 170.066,220.914 169.387,220.171 168.903,219.218C 168.417,218.266 168.175,217.197 168.175,216.012L 168.175,215.506C 168.175,214.283 168.411,213.182 168.884,212.202C 169.356,211.222 170.014,210.451 170.858,209.89C 171.702,209.329 172.616,209.048 173.601,209.048C 175.141,209.048 176.363,209.578 177.265,210.636C 178.167,211.695 178.619,213.142 178.619,214.977L 178.619,215.768L 169.57,215.768L 169.57,216.038C 169.57,217.471 169.982,218.664 170.807,219.618C 171.633,220.571 172.67,221.048 173.92,221.048C 174.67,221.048 175.332,220.912 175.906,220.639C 176.479,220.367 177,219.931 177.468,219.331L 178.349,220.002C 177.316,221.499 175.82,222.248 173.86,222.248 Z M 173.601,210.248C 172.546,210.248 171.658,210.639 170.935,211.42C 170.213,212.201 169.774,213.251 169.619,214.568L 177.224,214.568L 177.224,214.414C 177.184,213.184 176.836,212.183 176.179,211.409C 175.523,210.635 174.664,210.248 173.601,210.248 Z "/>
		<path fill="#FFFFFF" fill-opacity="1" stroke-width="0.2" stroke-linejoin="round" d="M 186.141,221.048C 187.116,221.048 187.934,220.773 188.594,220.221C 189.254,219.67 189.611,218.957 189.666,218.082L 191.016,218.082C 190.976,218.859 190.734,219.568 190.289,220.206C 189.844,220.845 189.252,221.345 188.513,221.706C 187.774,222.068 186.984,222.248 186.141,222.248C 184.476,222.248 183.158,221.668 182.185,220.506C 181.213,219.345 180.726,217.784 180.726,215.824L 180.726,215.401C 180.726,214.146 180.945,213.036 181.383,212.071C 181.82,211.106 182.447,210.361 183.263,209.836C 184.079,209.311 185.034,209.048 186.126,209.048C 187.519,209.048 188.666,209.464 189.569,210.295C 190.471,211.126 190.954,212.221 191.016,213.578L 189.666,213.578C 189.604,212.581 189.246,211.776 188.594,211.165C 187.941,210.554 187.119,210.248 186.126,210.248C 184.861,210.248 183.879,210.706 183.181,211.623C 182.482,212.539 182.133,213.824 182.133,215.479L 182.133,215.888C 182.133,217.511 182.482,218.776 183.181,219.685C 183.879,220.594 184.866,221.048 186.141,221.048 Z "/>
		<path fill="#FFFFFF" fill-opacity="1" stroke-width="0.2" stroke-linejoin="round" d="M 196.034,205.928L 196.034,209.288L 198.659,209.288L 198.659,210.488L 196.034,210.488L 196.034,218.956C 196.034,219.661 196.161,220.186 196.414,220.531C 196.668,220.876 197.091,221.048 197.684,221.048C 197.919,221.048 198.299,221.009 198.824,220.932L 198.88,222.053C 198.513,222.183 198.013,222.248 197.38,222.248C 196.42,222.248 195.721,221.969 195.284,221.41C 194.846,220.851 194.628,220.029 194.628,218.944L 194.628,210.488L 192.295,210.488L 192.295,209.288L 194.628,209.288L 194.628,205.928L 196.034,205.928 Z "/>
		<path fill="#FFFFFF" fill-opacity="1" stroke-width="0.2" stroke-linejoin="round" d="M 200.77,215.461C 200.77,214.236 201.006,213.133 201.479,212.153C 201.951,211.173 202.619,210.411 203.483,209.866C 204.347,209.321 205.326,209.048 206.421,209.048C 208.109,209.048 209.476,209.643 210.522,210.831C 211.568,212.02 212.091,213.594 212.091,215.554L 212.091,215.847C 212.091,217.079 211.855,218.188 211.383,219.171C 210.91,220.155 210.244,220.914 209.384,221.448C 208.524,221.981 207.544,222.248 206.444,222.248C 204.764,222.248 203.398,221.654 202.347,220.465C 201.296,219.276 200.77,217.702 200.77,215.742L 200.77,215.461 Z M 202.176,215.843C 202.176,217.363 202.569,218.611 203.354,219.586C 204.139,220.561 205.169,221.048 206.444,221.048C 207.709,221.048 208.734,220.561 209.519,219.586C 210.304,218.611 210.696,217.323 210.696,215.723L 210.696,215.453C 210.696,214.483 210.517,213.594 210.158,212.787C 209.799,211.979 209.296,211.354 208.647,210.912C 207.998,210.469 207.256,210.248 206.421,210.248C 205.171,210.248 204.151,210.74 203.361,211.724C 202.571,212.708 202.176,213.994 202.176,215.584L 202.176,215.843 Z "/>
		<path fill="#FFFFFF" fill-opacity="1" stroke-width="0.2" stroke-linejoin="round" d="M 220.896,210.327C 220.599,210.274 220.283,210.248 219.948,210.248C 219.073,210.248 218.333,210.496 217.727,210.993C 217.122,211.489 216.69,212.209 216.43,213.154L 216.43,222.008L 215.039,222.008L 215.039,209.288L 216.408,209.288L 216.43,211.306C 217.173,209.801 218.365,209.048 220.008,209.048C 220.398,209.048 220.705,209.093 220.93,209.183L 220.896,210.327 Z "/>
		<path fill="#FFFFFF" fill-opacity="1" stroke-width="0.2" stroke-linejoin="round" d="M 229.188,222.008L 229.188,204.968L 233.958,204.968C 235.355,204.968 236.609,205.286 237.719,205.923C 238.829,206.559 239.694,207.469 240.316,208.654C 240.937,209.839 241.248,211.189 241.248,212.704L 241.248,214.272C 241.248,215.794 240.939,217.144 240.321,218.322C 239.704,219.499 238.834,220.408 237.713,221.048C 236.592,221.688 235.305,222.008 233.853,222.008L 229.188,222.008 Z M 230.628,206.168L 230.628,220.808L 233.864,220.808C 235.661,220.808 237.103,220.211 238.188,219.018C 239.273,217.824 239.815,216.209 239.815,214.174L 239.815,212.671C 239.815,210.708 239.28,209.136 238.21,207.953C 237.14,206.771 235.73,206.176 233.98,206.168L 230.628,206.168 Z "/>
		<path fill="#FFFFFF" fill-opacity="1" stroke-width="0.2" stroke-linejoin="round" d="M 250.416,210.327C 250.119,210.274 249.803,210.248 249.468,210.248C 248.593,210.248 247.853,210.496 247.248,210.993C 246.643,211.489 246.21,212.209 245.95,213.154L 245.95,222.008L 244.559,222.008L 244.559,209.288L 245.928,209.288L 245.95,211.306C 246.693,209.801 247.885,209.048 249.528,209.048C 249.918,209.048 250.225,209.093 250.45,209.183L 250.416,210.327 Z "/>
		<path fill="#FFFFFF" fill-opacity="1" stroke-width="0.2" stroke-linejoin="round" d="M 260.721,222.008C 260.581,221.608 260.491,221.016 260.451,220.231C 259.959,220.876 259.332,221.373 258.571,221.723C 257.809,222.073 257.003,222.248 256.15,222.248C 254.932,222.248 253.947,221.905 253.193,221.219C 252.439,220.533 252.063,219.664 252.063,218.614C 252.063,217.369 252.576,216.384 253.602,215.658C 254.628,214.931 256.06,214.568 257.897,214.568L 260.44,214.568L 260.44,213.139C 260.44,212.242 260.161,211.536 259.602,211.021C 259.043,210.506 258.229,210.248 257.159,210.248C 256.181,210.248 255.372,210.483 254.732,210.953C 254.092,211.423 253.773,211.988 253.773,212.648L 252.366,212.637C 252.366,211.667 252.835,210.826 253.773,210.115C 254.71,209.404 255.862,209.048 257.23,209.048C 258.642,209.048 259.757,209.403 260.573,210.113C 261.389,210.823 261.81,211.813 261.835,213.083L 261.835,219.102C 261.835,220.334 261.964,221.256 262.221,221.866L 262.221,222.008L 260.721,222.008 Z M 256.315,221.048C 257.253,221.048 258.091,220.822 258.829,220.369C 259.568,219.917 260.105,219.312 260.44,218.554L 260.44,215.768L 257.931,215.768C 256.534,215.783 255.441,216.039 254.652,216.535C 253.863,217.031 253.469,217.712 253.469,218.577C 253.469,219.287 253.732,219.876 254.258,220.345C 254.784,220.814 255.47,221.048 256.315,221.048 Z "/>
		<path fill="#FFFFFF" fill-opacity="1" stroke-width="0.2" stroke-linejoin="round" d="M 268.664,219.079L 268.874,220.174L 269.155,219.023L 272.204,209.288L 273.396,209.288L 276.411,218.941L 276.738,220.279L 277.008,219.046L 279.61,209.288L 281.061,209.288L 277.371,222.008L 276.175,222.008L 272.916,211.921L 272.766,211.227L 272.613,211.932L 269.414,222.008L 268.217,222.008L 264.539,209.288L 265.979,209.288L 268.664,219.079 Z "/>
		<path fill="#FFFFFF" fill-opacity="1" stroke-width="0.2" stroke-linejoin="round" d="M 291.681,222.008C 291.541,221.608 291.451,221.016 291.411,220.231C 290.919,220.876 290.292,221.373 289.531,221.723C 288.769,222.073 287.962,222.248 287.11,222.248C 285.892,222.248 284.907,221.905 284.153,221.219C 283.399,220.533 283.022,219.664 283.022,218.614C 283.022,217.369 283.536,216.384 284.562,215.658C 285.588,214.931 287.02,214.568 288.858,214.568L 291.4,214.568L 291.4,213.139C 291.4,212.242 291.121,211.536 290.562,211.021C 290.003,210.506 289.189,210.248 288.119,210.248C 287.141,210.248 286.332,210.483 285.693,210.953C 285.052,211.423 284.733,211.988 284.733,212.648L 283.326,212.637C 283.326,211.667 283.795,210.826 284.733,210.115C 285.67,209.404 286.822,209.048 288.19,209.048C 289.603,209.048 290.717,209.403 291.533,210.113C 292.349,210.823 292.77,211.813 292.795,213.083L 292.795,219.102C 292.795,220.334 292.924,221.256 293.181,221.866L 293.181,222.008L 291.681,222.008 Z M 287.275,221.048C 288.212,221.048 289.051,220.822 289.789,220.369C 290.528,219.917 291.065,219.312 291.4,218.554L 291.4,215.768L 288.891,215.768C 287.494,215.783 286.401,216.039 285.612,216.535C 284.823,217.031 284.429,217.712 284.429,218.577C 284.429,219.287 284.692,219.876 285.218,220.345C 285.744,220.814 286.43,221.048 287.275,221.048 Z "/>
		<path fill="#FFFFFF" fill-opacity="1" stroke-width="0.2" stroke-linejoin="round" d="M 306.741,215.779C 306.741,217.762 306.304,219.336 305.429,220.501C 304.554,221.666 303.379,222.248 301.904,222.248C 300.139,222.248 298.803,221.588 297.895,220.268L 297.835,222.008L 296.523,222.008L 296.523,204.008L 297.918,204.008L 297.918,211.129C 298.81,209.742 300.131,209.048 301.881,209.048C 303.381,209.048 304.566,209.623 305.436,210.771C 306.306,211.92 306.741,213.518 306.741,215.566L 306.741,215.779 Z M 305.335,215.528C 305.335,213.843 305.011,212.542 304.364,211.624C 303.716,210.707 302.803,210.248 301.623,210.248C 300.723,210.248 299.96,210.471 299.335,210.916C 298.71,211.361 298.238,212.013 297.918,212.873L 297.918,218.637C 298.623,220.244 299.865,221.048 301.645,221.048C 302.803,221.048 303.707,220.588 304.358,219.666C 305.009,218.745 305.335,217.366 305.335,215.528 Z "/>
		<rect x="309.951" y="204.008" fill="#FFFFFF" fill-opacity="1" stroke-width="0.2" stroke-linejoin="round" width="1.40625" height="18"/>
		<path fill="#FFFFFF" fill-opacity="1" stroke-width="0.2" stroke-linejoin="round" d="M 320.02,222.248C 318.943,222.248 317.968,221.981 317.097,221.448C 316.226,220.914 315.548,220.171 315.063,219.218C 314.578,218.266 314.335,217.197 314.335,216.012L 314.335,215.506C 314.335,214.283 314.571,213.182 315.044,212.202C 315.516,211.222 316.174,210.451 317.018,209.89C 317.862,209.329 318.776,209.048 319.761,209.048C 321.301,209.048 322.523,209.578 323.425,210.636C 324.328,211.695 324.779,213.142 324.779,214.977L 324.779,215.768L 315.73,215.768L 315.73,216.038C 315.73,217.471 316.143,218.664 316.967,219.618C 317.793,220.571 318.83,221.048 320.08,221.048C 320.83,221.048 321.492,220.912 322.066,220.639C 322.639,220.367 323.16,219.931 323.628,219.331L 324.509,220.002C 323.476,221.499 321.98,222.248 320.02,222.248 Z M 319.761,210.248C 318.706,210.248 317.818,210.639 317.095,211.42C 316.373,212.201 315.934,213.251 315.779,214.568L 323.384,214.568L 323.384,214.414C 323.344,213.184 322.996,212.183 322.339,211.409C 321.683,210.635 320.824,210.248 319.761,210.248 Z "/>
		<path fill="#FFFFFF" fill-opacity="1" stroke-width="0.2" stroke-linejoin="round" d="M 335.185,218.772C 335.185,218.074 334.906,217.514 334.347,217.092C 333.788,216.669 332.946,216.339 331.821,216.1C 330.696,215.861 329.823,215.587 329.202,215.277C 328.581,214.967 328.119,214.588 327.818,214.141C 327.517,213.693 327.366,213.152 327.366,212.517C 327.366,211.514 327.784,210.686 328.621,210.031C 329.457,209.376 330.527,209.048 331.833,209.048C 333.245,209.048 334.379,209.399 335.236,210.1C 336.092,210.801 336.52,211.717 336.52,212.847L 335.114,212.847C 335.114,212.102 334.803,211.483 334.182,210.989C 333.561,210.495 332.777,210.248 331.833,210.248C 330.91,210.248 330.169,210.451 329.611,210.856C 329.052,211.261 328.772,211.787 328.772,212.434C 328.772,213.059 329.005,213.544 329.47,213.888C 329.935,214.231 330.783,214.546 332.013,214.831C 333.243,215.116 334.164,215.425 334.778,215.759C 335.392,216.093 335.848,216.493 336.145,216.961C 336.443,217.428 336.591,217.996 336.591,218.663C 336.591,219.751 336.159,220.62 335.296,221.271C 334.432,221.923 333.305,222.248 331.915,222.248C 330.438,222.248 329.24,221.889 328.323,221.172C 327.405,220.454 326.946,219.547 326.946,218.449L 328.353,218.449C 328.408,219.269 328.753,219.908 329.389,220.364C 330.026,220.82 330.868,221.048 331.915,221.048C 332.89,221.048 333.679,220.833 334.281,220.403C 334.884,219.973 335.185,219.429 335.185,218.772 Z "/>
		<path fill="#FFFFFF" fill-opacity="1" stroke-width="0.2" stroke-linejoin="round" d="M 397.146,212.176L 401.954,204.968L 403.675,204.968L 398.028,213.368L 403.851,222.008L 402.115,222.008L 397.146,214.564L 392.155,222.008L 390.445,222.008L 396.28,213.372L 390.621,204.968L 392.343,204.968L 397.146,212.176 Z "/>
		<path fill="#FFFFFF" fill-opacity="1" stroke-width="0.2" stroke-linejoin="round" d="M 415.75,217.208L 408.006,217.208L 406.248,222.008L 404.736,222.008L 411.194,204.968L 412.563,204.968L 419.02,222.008L 417.52,222.008L 415.75,217.208 Z M 408.449,216.008L 415.293,216.008L 411.873,206.723L 408.449,216.008 Z "/>
		<path fill="#FFFFFF" fill-opacity="1" stroke-width="0.2" stroke-linejoin="round" d="M 423.385,204.968L 429.681,220.006L 435.996,204.968L 437.916,204.968L 437.916,222.008L 436.476,222.008L 436.476,214.587L 436.593,206.982L 430.244,222.008L 429.13,222.008L 422.8,207.038L 422.916,214.542L 422.916,222.008L 421.476,222.008L 421.476,204.968L 423.385,204.968 Z "/>
		<path fill="#FFFFFF" fill-opacity="1" stroke-width="0.2" stroke-linejoin="round" d="M 443.811,220.808L 452.234,220.808L 452.234,222.008L 442.356,222.008L 442.356,204.968L 443.811,204.968L 443.811,220.808 Z "/>
		<path fill="#FFFFFF" fill-opacity="1" stroke-width="0.2" stroke-linejoin="round" d="M 510.07,217.411L 510.595,220.054L 511.24,217.527L 514.945,204.968L 516.246,204.968L 519.903,217.527L 520.533,220.077L 521.095,217.407L 524.178,204.968L 525.655,204.968L 521.283,222.008L 519.903,222.008L 516.033,208.677L 515.602,206.993L 515.178,208.677L 511.218,222.008L 509.834,222.008L 505.476,204.968L 506.95,204.968L 510.07,217.411 Z "/>
		<path fill="#FFFFFF" fill-opacity="1" stroke-width="0.2" stroke-linejoin="round" d="M 533.14,222.248C 532.063,222.248 531.088,221.981 530.217,221.448C 529.346,220.914 528.668,220.171 528.183,219.218C 527.698,218.266 527.455,217.197 527.455,216.012L 527.455,215.506C 527.455,214.283 527.691,213.182 528.164,212.202C 528.636,211.222 529.295,210.451 530.138,209.89C 530.982,209.329 531.896,209.048 532.881,209.048C 534.421,209.048 535.643,209.578 536.545,210.636C 537.448,211.695 537.899,213.142 537.899,214.977L 537.899,215.768L 528.85,215.768L 528.85,216.038C 528.85,217.471 529.263,218.664 530.088,219.618C 530.913,220.571 531.95,221.048 533.2,221.048C 533.95,221.048 534.612,220.912 535.186,220.639C 535.76,220.367 536.28,219.931 536.748,219.331L 537.629,220.002C 536.596,221.499 535.1,222.248 533.14,222.248 Z M 532.881,210.248C 531.826,210.248 530.938,210.639 530.215,211.42C 529.493,212.201 529.054,213.251 528.899,214.568L 536.504,214.568L 536.504,214.414C 536.464,213.184 536.116,212.183 535.46,211.409C 534.803,210.635 533.944,210.248 532.881,210.248 Z "/>
		<path fill="#FFFFFF" fill-opacity="1" stroke-width="0.2" stroke-linejoin="round" d="M 550.821,215.779C 550.821,217.762 550.384,219.336 549.509,220.501C 548.634,221.666 547.459,222.248 545.984,222.248C 544.219,222.248 542.883,221.588 541.975,220.268L 541.915,222.008L 540.603,222.008L 540.603,204.008L 541.998,204.008L 541.998,211.129C 542.89,209.742 544.211,209.048 545.961,209.048C 547.461,209.048 548.646,209.623 549.516,210.771C 550.386,211.92 550.821,213.518 550.821,215.566L 550.821,215.779 Z M 549.415,215.528C 549.415,213.843 549.091,212.542 548.444,211.624C 547.796,210.707 546.883,210.248 545.703,210.248C 544.803,210.248 544.04,210.471 543.415,210.916C 542.79,211.361 542.318,212.013 541.998,212.873L 541.998,218.637C 542.703,220.244 543.945,221.048 545.725,221.048C 546.883,221.048 547.787,220.588 548.438,219.666C 549.09,218.745 549.415,217.366 549.415,215.528 Z "/>
		<path fill="#FFFFFF" fill-opacity="1" stroke-width="0.2" stroke-linejoin="round" d="M 554.864,222.008L 554.864,210.488L 552.768,210.488L 552.768,209.288L 554.864,209.288L 554.864,207.766C 554.864,206.481 555.194,205.493 555.854,204.803C 556.514,204.113 557.434,203.768 558.614,203.768C 559.146,203.768 559.643,203.833 560.103,203.963L 559.998,205.111C 559.608,205.016 559.181,204.968 558.719,204.968C 557.946,204.968 557.345,205.208 556.915,205.686C 556.485,206.165 556.27,206.844 556.27,207.724L 556.27,209.288L 559.296,209.288L 559.296,210.488L 556.27,210.488L 556.27,222.008L 554.864,222.008 Z "/>
		<path fill="#FFFFFF" fill-opacity="1" stroke-width="0.2" stroke-linejoin="round" d="M 561.01,215.461C 561.01,214.236 561.246,213.133 561.719,212.153C 562.191,211.173 562.86,210.411 563.723,209.866C 564.587,209.321 565.566,209.048 566.661,209.048C 568.349,209.048 569.716,209.643 570.762,210.831C 571.808,212.02 572.331,213.594 572.331,215.554L 572.331,215.847C 572.331,217.079 572.095,218.188 571.623,219.171C 571.15,220.155 570.484,220.914 569.624,221.448C 568.764,221.981 567.784,222.248 566.684,222.248C 565.004,222.248 563.638,221.654 562.587,220.465C 561.536,219.276 561.01,217.702 561.01,215.742L 561.01,215.461 Z M 562.416,215.843C 562.416,217.363 562.809,218.611 563.594,219.586C 564.379,220.561 565.409,221.048 566.684,221.048C 567.949,221.048 568.974,220.561 569.759,219.586C 570.544,218.611 570.936,217.323 570.936,215.723L 570.936,215.453C 570.936,214.483 570.757,213.594 570.398,212.787C 570.04,211.979 569.536,211.354 568.887,210.912C 568.238,210.469 567.496,210.248 566.661,210.248C 565.411,210.248 564.391,210.74 563.602,211.724C 562.811,212.708 562.416,213.994 562.416,215.584L 562.416,215.843 Z "/>
		<path fill="#FFFFFF" fill-opacity="1" stroke-width="0.2" stroke-linejoin="round" d="M 576.573,209.288L 576.618,211.459C 577.095,210.674 577.69,210.076 578.401,209.665C 579.112,209.254 579.896,209.048 580.754,209.048C 582.114,209.048 583.126,209.433 583.79,210.201C 584.453,210.97 584.79,212.122 584.8,213.657L 584.8,222.008L 583.405,222.008L 583.405,213.631C 583.398,212.491 583.157,211.642 582.683,211.084C 582.21,210.527 581.454,210.248 580.416,210.248C 579.549,210.248 578.781,210.521 578.114,211.068C 577.446,211.614 576.951,212.351 576.629,213.278L 576.629,222.008L 575.238,222.008L 575.238,209.288L 576.573,209.288 Z "/>
		<path fill="#FFFFFF" fill-opacity="1" stroke-width="0.2" stroke-linejoin="round" d="M 590.594,205.928L 590.594,209.288L 593.219,209.288L 593.219,210.488L 590.594,210.488L 590.594,218.956C 590.594,219.661 590.721,220.186 590.975,220.531C 591.228,220.876 591.651,221.048 592.244,221.048C 592.479,221.048 592.859,221.009 593.384,220.932L 593.44,222.053C 593.073,222.183 592.573,222.248 591.94,222.248C 590.98,222.248 590.281,221.969 589.844,221.41C 589.406,220.851 589.188,220.029 589.188,218.944L 589.188,210.488L 586.855,210.488L 586.855,209.288L 589.188,209.288L 589.188,205.928L 590.594,205.928 Z "/>
		<path fill="#FFFFFF" fill-opacity="1" stroke-width="0.2" stroke-linejoin="round" d="M 666.127,216.713C 665.932,218.511 665.289,219.883 664.199,220.829C 663.109,221.775 661.658,222.248 659.845,222.248C 658.58,222.248 657.462,221.932 656.489,221.299C 655.517,220.667 654.765,219.771 654.233,218.613C 653.702,217.454 653.432,216.128 653.422,214.636L 653.422,212.423C 653.422,210.908 653.687,209.565 654.218,208.394C 654.75,207.223 655.513,206.319 656.51,205.683C 657.506,205.046 658.653,204.728 659.95,204.728C 661.778,204.728 663.221,205.217 664.28,206.194C 665.338,207.172 665.954,208.532 666.127,210.274L 664.672,210.274C 664.314,207.377 662.74,205.928 659.95,205.928C 658.403,205.928 657.17,206.508 656.253,207.666C 655.335,208.825 654.877,210.427 654.877,212.472L 654.877,214.564C 654.877,216.537 655.324,218.111 656.219,219.286C 657.114,220.461 658.323,221.048 659.845,221.048C 661.353,221.048 662.49,220.687 663.256,219.964C 664.022,219.242 664.494,218.158 664.672,216.713L 666.127,216.713 Z "/>
		<path fill="#FFFFFF" fill-opacity="1" stroke-width="0.2" stroke-linejoin="round" d="M 669.588,222.008L 669.588,204.968L 674.358,204.968C 675.755,204.968 677.009,205.286 678.119,205.923C 679.229,206.559 680.095,207.469 680.716,208.654C 681.337,209.839 681.648,211.189 681.648,212.704L 681.648,214.272C 681.648,215.794 681.339,217.144 680.722,218.322C 680.104,219.499 679.235,220.408 678.113,221.048C 676.992,221.688 675.705,222.008 674.253,222.008L 669.588,222.008 Z M 671.028,206.168L 671.028,220.808L 674.264,220.808C 676.062,220.808 677.503,220.211 678.588,219.018C 679.673,217.824 680.215,216.209 680.215,214.174L 680.215,212.671C 680.215,210.708 679.68,209.136 678.61,207.953C 677.54,206.771 676.13,206.176 674.38,206.168L 671.028,206.168 Z "/>
		<path fill="#FFFFFF" fill-opacity="1" stroke-width="0.2" stroke-linejoin="round" d="M 697.942,222.008L 696.498,222.008L 686.692,207.424L 686.692,222.008L 685.237,222.008L 685.237,204.968L 686.692,204.968L 696.509,219.563L 696.509,204.968L 697.942,204.968L 697.942,222.008 Z "/>
	</g>
	<path fill="#FFFFFF" fill-opacity="1" stroke-width="0.2" stroke-linejoin="round" d="M 32.8931,202.997L 34.8494,203.413L 31.1069,221.019L 29.1506,220.604L 32.8931,202.997 Z M 39.5858,212.001L 36,208.415L 36,205.587L 42.4216,212.008L 36,218.419L 36,215.587L 39.5858,212.001 Z M 21.5784,212.011L 28,205.59L 28,208.418L 24.4142,212.004L 28,215.59L 28,218.422L 21.5784,212.011 Z "/>
	<rect x="19" y="193.008" fill="#FFFFFF" fill-opacity="0.403922" stroke-width="0.2" stroke-linejoin="round" width="1" height="38"/>
	<rect x="44" y="193.008" fill="#FFFFFF" fill-opacity="0.403922" stroke-width="0.2" stroke-linejoin="round" width="1" height="38"/>
	<rect x="13" y="199.008" fill="#FFFFFF" fill-opacity="0.403922" stroke-width="0.2" stroke-linejoin="round" width="38" height="1"/>
	<rect x="13" y="224.008" fill="#FFFFFF" fill-opacity="0.403922" stroke-width="0.2" stroke-linejoin="round" width="38" height="1"/>
	<path fill="#FFFFFF" fill-opacity="1" stroke-width="0.2" stroke-linejoin="round" d="M 135.999,205.006L 134.999,205.006L 134.999,204.006L 135.999,204.006M 130.999,205.006L 129.999,205.006L 129.999,204.006L 130.999,204.006M 136.531,202.164L 137.835,200.86C 138.03,200.664 138.03,200.348 137.835,200.152C 137.64,199.957 137.323,199.957 137.128,200.152L 135.651,201.63C 134.85,201.234 133.952,201.006 132.999,201.006C 132.041,201.006 131.139,201.237 130.336,201.635L 128.853,200.152C 128.657,199.957 128.341,199.957 128.145,200.152C 127.95,200.348 127.95,200.664 128.145,200.86L 129.457,202.171C 127.969,203.263 126.999,205.019 126.999,207.006L 138.999,207.006C 138.999,205.015 138.025,203.255 136.531,202.164 Z M 141.499,208.006C 140.671,208.006 139.999,208.677 139.999,209.506L 139.999,216.506C 139.999,217.335 140.671,218.006 141.499,218.006C 142.327,218.006 142.999,217.335 142.999,216.506L 142.999,209.506C 142.999,208.677 142.327,208.006 141.499,208.006 Z M 124.499,208.006C 123.671,208.006 122.999,208.677 122.999,209.506L 122.999,216.506C 122.999,217.335 123.671,218.006 124.499,218.006C 125.327,218.006 125.999,217.335 125.999,216.506L 125.999,209.506C 125.999,208.677 125.327,208.006 124.499,208.006 Z M 126.999,218.006C 126.999,218.557 127.448,219.006 127.999,219.006L 128.999,219.006L 128.999,222.506C 128.999,223.335 129.671,224.006 130.499,224.006C 131.327,224.006 131.999,223.335 131.999,222.506L 131.999,219.006L 133.999,219.006L 133.999,222.506C 133.999,223.335 134.671,224.006 135.499,224.006C 136.327,224.006 136.999,223.335 136.999,222.506L 136.999,219.006L 137.999,219.006C 138.55,219.006 138.999,218.557 138.999,218.006L 138.999,208.006L 126.999,208.006L 126.999,218.006 Z "/>
	<rect x="120" y="193.008" fill="#FFFFFF" fill-opacity="0.403922" stroke-width="0.2" stroke-linejoin="round" width="1" height="38"/>
	<rect x="145" y="193.008" fill="#FFFFFF" fill-opacity="0.403922" stroke-width="0.2" stroke-linejoin="round" width="1" height="38"/>
	<rect x="114" y="199.008" fill="#FFFFFF" fill-opacity="0.403922" stroke-width="0.2" stroke-linejoin="round" width="38" height="1"/>
	<rect x="114" y="224.008" fill="#FFFFFF" fill-opacity="0.403922" stroke-width="0.2" stroke-linejoin="round" width="38" height="1"/>
	<rect x="359" y="193.008" fill="#FFFFFF" fill-opacity="0.403922" stroke-width="0.2" stroke-linejoin="round" width="1" height="38"/>
	<rect x="384" y="193.008" fill="#FFFFFF" fill-opacity="0.403922" stroke-width="0.2" stroke-linejoin="round" width="1" height="38"/>
	<rect x="353" y="199.008" fill="#FFFFFF" fill-opacity="0.403922" stroke-width="0.2" stroke-linejoin="round" width="38" height="1"/>
	<rect x="353" y="224.008" fill="#FFFFFF" fill-opacity="0.403922" stroke-width="0.2" stroke-linejoin="round" width="38" height="1"/>
	<path fill="#FFFFFF" fill-opacity="1" stroke-width="0.2" stroke-linejoin="round" d="M 363,212.008L 363,206.758L 369,205.435L 369,211.92L 363,212.008 Z M 380,203.008L 380,211.758L 370,211.905L 370,205.214L 380,203.008 Z M 363,213.008L 369,213.096L 369,219.905L 363,218.758L 363,213.008 Z M 380,213.258L 380,222.008L 370,220.096L 370,213.111L 380,213.258 Z "/>
	<g>
		<path fill="#FFFFFF" fill-opacity="1" stroke-width="0.2" stroke-linejoin="round" d="M 256.313,118.175C 255.988,121.171 254.917,123.457 253.1,125.034C 251.284,126.611 248.865,127.4 245.844,127.4C 243.736,127.4 241.871,126.873 240.25,125.819C 238.629,124.765 237.376,123.272 236.491,121.341C 235.605,119.409 235.154,117.2 235.138,114.713L 235.138,111.025C 235.138,108.5 235.58,106.261 236.466,104.309C 237.351,102.357 238.624,100.851 240.285,99.7906C 241.945,98.7302 243.856,98.2 246.019,98.2C 249.065,98.2 251.47,99.0146 253.235,100.644C 254.999,102.273 256.025,104.54 256.313,107.444L 253.888,107.444C 253.292,102.615 250.669,100.2 246.019,100.2C 243.44,100.2 241.386,101.166 239.856,103.097C 238.327,105.028 237.563,107.698 237.563,111.106L 237.563,114.594C 237.563,117.881 238.309,120.504 239.8,122.463C 241.292,124.421 243.306,125.4 245.844,125.4C 248.356,125.4 250.251,124.798 251.528,123.594C 252.805,122.39 253.592,120.583 253.888,118.175L 256.313,118.175 Z "/>
		<path fill="#FFFFFF" fill-opacity="1" stroke-width="0.2" stroke-linejoin="round" d="M 260.319,116.088C 260.319,114.046 260.713,112.208 261.5,110.575C 262.288,108.942 263.401,107.671 264.841,106.763C 266.28,105.854 267.913,105.4 269.738,105.4C 272.55,105.4 274.828,106.391 276.572,108.372C 278.316,110.353 279.188,112.977 279.188,116.244L 279.188,116.731C 279.188,118.785 278.794,120.632 278.006,122.272C 277.219,123.911 276.108,125.176 274.675,126.066C 273.242,126.955 271.608,127.4 269.775,127.4C 266.975,127.4 264.699,126.409 262.947,124.428C 261.195,122.447 260.319,119.823 260.319,116.556L 260.319,116.088 Z M 262.663,116.725C 262.663,119.258 263.317,121.338 264.625,122.963C 265.934,124.588 267.65,125.4 269.775,125.4C 271.884,125.4 273.592,124.588 274.9,122.963C 276.208,121.338 276.863,119.192 276.863,116.525L 276.863,116.075C 276.863,114.458 276.564,112.977 275.966,111.631C 275.368,110.285 274.528,109.244 273.447,108.506C 272.366,107.769 271.129,107.4 269.738,107.4C 267.654,107.4 265.954,108.22 264.638,109.859C 263.321,111.499 262.663,113.644 262.663,116.294L 262.663,116.725 Z "/>
		<path fill="#FFFFFF" fill-opacity="1" stroke-width="0.2" stroke-linejoin="round" d="M 286.219,105.8L 286.3,109.244C 287.079,107.96 288.055,106.999 289.228,106.359C 290.401,105.72 291.702,105.4 293.131,105.4C 296.465,105.4 298.581,106.773 299.481,109.519C 300.236,108.198 301.245,107.181 302.51,106.469C 303.774,105.756 305.167,105.4 306.688,105.4C 311.221,105.4 313.534,107.883 313.625,112.85L 313.625,127L 311.281,127L 311.281,113C 311.265,111.1 310.856,109.692 310.056,108.775C 309.256,107.858 307.952,107.4 306.144,107.4C 304.465,107.425 303.045,107.971 301.885,109.038C 300.724,110.104 300.079,111.404 299.95,112.938L 299.95,127L 297.606,127L 297.606,112.819C 297.594,110.998 297.168,109.64 296.328,108.744C 295.489,107.848 294.196,107.4 292.45,107.4C 290.979,107.4 289.717,107.822 288.663,108.666C 287.609,109.509 286.827,110.763 286.319,112.425L 286.319,127L 283.975,127L 283.975,105.8L 286.219,105.8 Z "/>
		<path fill="#FFFFFF" fill-opacity="1" stroke-width="0.2" stroke-linejoin="round" d="M 321.819,105.8L 321.9,109.244C 322.679,107.96 323.655,106.999 324.828,106.359C 326.001,105.72 327.302,105.4 328.731,105.4C 332.065,105.4 334.181,106.773 335.081,109.519C 335.836,108.198 336.845,107.181 338.11,106.469C 339.374,105.756 340.767,105.4 342.288,105.4C 346.821,105.4 349.134,107.883 349.225,112.85L 349.225,127L 346.881,127L 346.881,113C 346.865,111.1 346.456,109.692 345.656,108.775C 344.856,107.858 343.552,107.4 341.744,107.4C 340.065,107.425 338.645,107.971 337.485,109.038C 336.324,110.104 335.679,111.404 335.55,112.938L 335.55,127L 333.206,127L 333.206,112.819C 333.194,110.998 332.768,109.64 331.928,108.744C 331.089,107.848 329.796,107.4 328.05,107.4C 326.579,107.4 325.317,107.822 324.263,108.666C 323.209,109.509 322.427,110.763 321.919,112.425L 321.919,127L 319.575,127L 319.575,105.8L 321.819,105.8 Z "/>
		<path fill="#FFFFFF" fill-opacity="1" stroke-width="0.2" stroke-linejoin="round" d="M 368.825,124.319C 367.417,126.373 365.169,127.4 362.081,127.4C 359.831,127.4 358.12,126.744 356.947,125.431C 355.774,124.119 355.175,122.175 355.15,119.6L 355.15,105.8L 357.475,105.8L 357.475,119.331C 357.475,123.377 359.102,125.4 362.356,125.4C 365.744,125.4 367.886,123.992 368.781,121.175L 368.781,105.8L 371.125,105.8L 371.125,127L 368.863,127L 368.825,124.319 Z "/>
		<path fill="#FFFFFF" fill-opacity="1" stroke-width="0.2" stroke-linejoin="round" d="M 379.456,105.8L 379.531,109.419C 380.327,108.11 381.318,107.114 382.503,106.428C 383.689,105.743 384.996,105.4 386.425,105.4C 388.692,105.4 390.378,106.041 391.485,107.322C 392.591,108.603 393.152,110.523 393.169,113.081L 393.169,127L 390.844,127L 390.844,113.038C 390.831,111.138 390.43,109.723 389.641,108.794C 388.851,107.865 387.592,107.4 385.863,107.4C 384.417,107.4 383.138,107.855 382.025,108.766C 380.913,109.676 380.088,110.904 379.55,112.45L 379.55,127L 377.231,127L 377.231,105.8L 379.456,105.8 Z "/>
		<path fill="#FFFFFF" fill-opacity="1" stroke-width="0.2" stroke-linejoin="round" d="M 401.763,127L 399.419,127L 399.419,105.8L 401.763,105.8L 401.763,127 Z M 399.013,99.8125C 399.013,99.3583 399.155,98.9761 399.441,98.6656C 399.726,98.3552 400.117,98.2 400.613,98.2C 401.109,98.2 401.502,98.3552 401.794,98.6656C 402.086,98.9761 402.231,99.3573 402.231,99.8094C 402.231,100.261 402.086,100.64 401.794,100.944C 401.502,101.248 401.109,101.4 400.613,101.4C 400.117,101.4 399.726,101.248 399.441,100.944C 399.155,100.64 399.013,100.263 399.013,99.8125 Z "/>
		<path fill="#FFFFFF" fill-opacity="1" stroke-width="0.2" stroke-linejoin="round" d="M 411.625,100.2L 411.625,105.8L 416,105.8L 416,107.8L 411.625,107.8L 411.625,121.913C 411.625,123.088 411.837,123.963 412.26,124.538C 412.682,125.113 413.388,125.4 414.375,125.4C 414.767,125.4 415.4,125.335 416.275,125.206L 416.369,127.075C 415.756,127.292 414.923,127.4 413.869,127.4C 412.269,127.4 411.104,126.934 410.375,126.003C 409.646,125.072 409.281,123.702 409.281,121.894L 409.281,107.8L 405.394,107.8L 405.394,105.8L 409.281,105.8L 409.281,100.2L 411.625,100.2 Z "/>
		<path fill="#FFFFFF" fill-opacity="1" stroke-width="0.2" stroke-linejoin="round" d="M 427.613,123.531L 433.788,105.8L 436.306,105.8L 427.281,130.469L 426.813,131.563C 425.654,134.121 423.865,135.4 421.444,135.4C 420.886,135.4 420.286,135.313 419.644,135.138L 419.625,133.281L 420.838,133.4C 421.984,133.4 422.912,133.117 423.622,132.55C 424.332,131.983 424.934,131.008 425.425,129.625L 426.463,126.775L 418.494,105.8L 421.05,105.8L 427.613,123.531 Z "/>
		<rect x="437.925" y="113.4" fill="#FFFFFF" fill-opacity="1" stroke-width="0.2" stroke-linejoin="round" width="9.35623" height="2"/>
		<rect x="451.888" y="97" fill="#FFFFFF" fill-opacity="1" stroke-width="0.2" stroke-linejoin="round" width="2.34375" height="30"/>
		<path fill="#FFFFFF" fill-opacity="1" stroke-width="0.2" stroke-linejoin="round" d="M 468.669,127.4C 466.873,127.4 465.249,126.955 463.797,126.066C 462.345,125.176 461.215,123.938 460.406,122.35C 459.598,120.763 459.194,118.981 459.194,117.006L 459.194,116.163C 459.194,114.125 459.588,112.29 460.375,110.656C 461.163,109.023 462.26,107.739 463.666,106.803C 465.072,105.868 466.596,105.4 468.238,105.4C 470.804,105.4 472.84,106.282 474.344,108.047C 475.848,109.811 476.6,112.223 476.6,115.281L 476.6,116.6L 461.519,116.6L 461.519,117.05C 461.519,119.438 462.206,121.426 463.581,123.016C 464.956,124.605 466.686,125.4 468.769,125.4C 470.019,125.4 471.122,125.173 472.078,124.719C 473.035,124.265 473.902,123.538 474.681,122.538L 476.15,123.656C 474.429,126.152 471.936,127.4 468.669,127.4 Z M 468.238,107.4C 466.479,107.4 464.998,108.051 463.794,109.353C 462.59,110.655 461.858,112.404 461.6,114.6L 474.275,114.6L 474.275,114.344C 474.208,112.294 473.628,110.624 472.535,109.334C 471.441,108.045 470.009,107.4 468.238,107.4 Z "/>
		<path fill="#FFFFFF" fill-opacity="1" stroke-width="0.2" stroke-linejoin="round" d="M 480.363,116.206C 480.363,112.91 481.095,110.285 482.56,108.331C 484.024,106.377 486.013,105.4 488.525,105.4C 491.375,105.4 493.55,106.531 495.05,108.794L 495.05,97L 497.369,97L 497.369,127L 495.181,127L 495.088,124.175C 493.588,126.325 491.388,127.4 488.488,127.4C 486.05,127.4 484.087,126.417 482.597,124.45C 481.108,122.483 480.363,119.827 480.363,116.481L 480.363,116.206 Z M 482.725,116.619C 482.725,119.335 483.265,121.478 484.344,123.047C 485.423,124.616 486.946,125.4 488.913,125.4C 491.792,125.4 493.838,124.121 495.05,121.563L 495.05,111.556C 493.838,108.785 491.806,107.4 488.956,107.4C 486.99,107.4 485.46,108.178 484.366,109.734C 483.272,111.291 482.725,113.585 482.725,116.619 Z "/>
		<rect x="514.288" y="98.6" fill="#FFFFFF" fill-opacity="1" stroke-width="0.2" stroke-linejoin="round" width="2.40625" height="28.4"/>
		<path fill="#FFFFFF" fill-opacity="1" stroke-width="0.2" stroke-linejoin="round" d="M 531.938,125.4C 533.563,125.4 534.925,124.941 536.025,124.022C 537.125,123.103 537.721,121.915 537.813,120.456L 540.063,120.456C 539.996,121.752 539.592,122.932 538.85,123.997C 538.109,125.061 537.122,125.895 535.891,126.497C 534.66,127.099 533.342,127.4 531.938,127.4C 529.163,127.4 526.965,126.432 525.344,124.497C 523.723,122.561 522.913,119.96 522.913,116.694L 522.913,115.988C 522.913,113.896 523.277,112.046 524.006,110.438C 524.736,108.829 525.78,107.588 527.141,106.713C 528.501,105.838 530.092,105.4 531.913,105.4C 534.234,105.4 536.146,106.093 537.65,107.478C 539.154,108.864 539.958,110.688 540.063,112.95L 537.813,112.95C 537.708,111.288 537.113,109.947 536.025,108.928C 534.938,107.909 533.567,107.4 531.913,107.4C 529.804,107.4 528.168,108.164 527.003,109.691C 525.839,111.218 525.256,113.36 525.256,116.119L 525.256,116.8C 525.256,119.504 525.839,121.614 527.003,123.128C 528.168,124.643 529.813,125.4 531.938,125.4 Z "/>
		<path fill="#FFFFFF" fill-opacity="1" stroke-width="0.2" stroke-linejoin="round" d="M 543.519,116.088C 543.519,114.046 543.913,112.208 544.7,110.575C 545.488,108.942 546.601,107.671 548.041,106.763C 549.48,105.854 551.113,105.4 552.938,105.4C 555.75,105.4 558.028,106.391 559.772,108.372C 561.516,110.353 562.388,112.977 562.388,116.244L 562.388,116.731C 562.388,118.785 561.994,120.632 561.206,122.272C 560.419,123.911 559.309,125.176 557.875,126.066C 556.442,126.955 554.809,127.4 552.975,127.4C 550.175,127.4 547.899,126.409 546.147,124.428C 544.395,122.447 543.519,119.823 543.519,116.556L 543.519,116.088 Z M 545.863,116.725C 545.863,119.258 546.517,121.338 547.825,122.963C 549.134,124.588 550.85,125.4 552.975,125.4C 555.084,125.4 556.792,124.588 558.1,122.963C 559.409,121.338 560.063,119.192 560.063,116.525L 560.063,116.075C 560.063,114.458 559.764,112.977 559.166,111.631C 558.568,110.285 557.728,109.244 556.647,108.506C 555.566,107.769 554.329,107.4 552.938,107.4C 550.854,107.4 549.154,108.22 547.838,109.859C 546.521,111.499 545.863,113.644 545.863,116.294L 545.863,116.725 Z "/>
		<path fill="#FFFFFF" fill-opacity="1" stroke-width="0.2" stroke-linejoin="round" d="M 569.456,105.8L 569.531,109.419C 570.327,108.11 571.318,107.114 572.503,106.428C 573.689,105.743 574.996,105.4 576.425,105.4C 578.692,105.4 580.378,106.041 581.485,107.322C 582.591,108.603 583.152,110.523 583.169,113.081L 583.169,127L 580.844,127L 580.844,113.038C 580.831,111.138 580.43,109.723 579.641,108.794C 578.851,107.865 577.592,107.4 575.863,107.4C 574.417,107.4 573.138,107.855 572.025,108.766C 570.913,109.676 570.088,110.904 569.55,112.45L 569.55,127L 567.232,127L 567.232,105.8L 569.456,105.8 Z "/>
		<path fill="#FFFFFF" fill-opacity="1" stroke-width="0.2" stroke-linejoin="round" d="M 587.919,116.088C 587.919,114.046 588.313,112.208 589.1,110.575C 589.888,108.942 591.001,107.671 592.441,106.763C 593.88,105.854 595.513,105.4 597.338,105.4C 600.15,105.4 602.428,106.391 604.172,108.372C 605.916,110.353 606.788,112.977 606.788,116.244L 606.788,116.731C 606.788,118.785 606.394,120.632 605.607,122.272C 604.819,123.911 603.709,125.176 602.275,126.066C 600.842,126.955 599.209,127.4 597.375,127.4C 594.575,127.4 592.299,126.409 590.547,124.428C 588.795,122.447 587.919,119.823 587.919,116.556L 587.919,116.088 Z M 590.263,116.725C 590.263,119.258 590.917,121.338 592.225,122.963C 593.534,124.588 595.25,125.4 597.375,125.4C 599.484,125.4 601.192,124.588 602.5,122.963C 603.809,121.338 604.463,119.192 604.463,116.525L 604.463,116.075C 604.463,114.458 604.164,112.977 603.566,111.631C 602.968,110.285 602.128,109.244 601.047,108.506C 599.966,107.769 598.729,107.4 597.338,107.4C 595.254,107.4 593.554,108.22 592.238,109.859C 590.921,111.499 590.263,113.644 590.263,116.294L 590.263,116.725 Z "/>
		<path fill="#FFFFFF" fill-opacity="1" stroke-width="0.2" stroke-linejoin="round" d="M 610.594,116.206C 610.594,112.885 611.326,110.254 612.791,108.313C 614.255,106.371 616.244,105.4 618.756,105.4C 621.631,105.4 623.819,106.55 625.319,108.85L 625.438,105.8L 627.625,105.8L 627.625,126.538C 627.625,129.263 626.863,131.421 625.338,133.013C 623.813,134.604 621.748,135.4 619.144,135.4C 617.673,135.4 616.271,135.073 614.938,134.419C 613.604,133.765 612.552,132.892 611.781,131.8L 613.094,130.4C 614.744,132.4 616.709,133.4 618.988,133.4C 620.942,133.4 622.466,132.826 623.56,131.678C 624.653,130.53 625.219,128.94 625.256,126.906L 625.256,124.263C 623.761,126.354 621.581,127.4 618.719,127.4C 616.269,127.4 614.302,126.42 612.819,124.459C 611.336,122.499 610.594,119.852 610.594,116.519L 610.594,116.206 Z M 612.95,116.619C 612.95,119.335 613.49,121.478 614.569,123.047C 615.648,124.616 617.171,125.4 619.138,125.4C 622.017,125.4 624.054,124.1 625.25,121.5L 625.25,111.594C 624.704,110.227 623.917,109.186 622.888,108.472C 621.859,107.757 620.623,107.4 619.181,107.4C 617.215,107.4 615.685,108.178 614.591,109.734C 613.497,111.291 612.95,113.585 612.95,116.619 Z "/>
		<path fill="#FFFFFF" fill-opacity="1" stroke-width="0.2" stroke-linejoin="round" d="M 643.463,107.531C 642.967,107.444 642.44,107.4 641.881,107.4C 640.423,107.4 639.19,107.814 638.181,108.641C 637.173,109.468 636.452,110.669 636.019,112.244L 636.019,127L 633.7,127L 633.7,105.8L 635.982,105.8L 636.019,109.163C 637.256,106.654 639.244,105.4 641.982,105.4C 642.631,105.4 643.144,105.475 643.519,105.625L 643.463,107.531 Z "/>
		<path fill="#FFFFFF" fill-opacity="1" stroke-width="0.2" stroke-linejoin="round" d="M 660.638,127C 660.404,126.333 660.254,125.346 660.188,124.038C 659.367,125.113 658.322,125.942 657.053,126.525C 655.785,127.108 654.44,127.4 653.019,127.4C 650.99,127.4 649.347,126.828 648.091,125.684C 646.835,124.541 646.206,123.094 646.206,121.344C 646.206,119.269 647.062,117.626 648.772,116.416C 650.482,115.205 652.869,114.6 655.931,114.6L 660.169,114.6L 660.169,112.219C 660.169,110.723 659.703,109.546 658.772,108.688C 657.841,107.829 656.484,107.4 654.7,107.4C 653.071,107.4 651.723,107.792 650.656,108.575C 649.59,109.358 649.056,110.3 649.056,111.4L 646.713,111.381C 646.713,109.765 647.494,108.364 649.056,107.178C 650.619,105.993 652.54,105.4 654.819,105.4C 657.173,105.4 659.03,105.992 660.391,107.175C 661.751,108.358 662.452,110.008 662.494,112.125L 662.494,122.156C 662.494,124.21 662.709,125.746 663.138,126.763L 663.138,127L 660.638,127 Z M 653.294,125.4C 654.857,125.4 656.253,125.023 657.485,124.269C 658.716,123.515 659.611,122.506 660.169,121.244L 660.169,116.6L 655.988,116.6C 653.659,116.625 651.837,117.051 650.522,117.878C 649.208,118.705 648.55,119.84 648.55,121.281C 648.55,122.465 648.989,123.447 649.866,124.228C 650.743,125.009 651.886,125.4 653.294,125.4 Z "/>
		<path fill="#FFFFFF" fill-opacity="1" stroke-width="0.2" stroke-linejoin="round" d="M 685.719,116.619C 685.719,119.923 684.99,122.546 683.531,124.488C 682.073,126.429 680.121,127.4 677.675,127.4C 674.784,127.4 672.569,126.381 671.031,124.344L 671.031,135L 668.706,135L 668.706,105.8L 670.875,105.8L 670.994,108.794C 672.519,106.531 674.725,105.4 677.613,105.4C 680.142,105.4 682.125,106.36 683.563,108.281C 685,110.202 685.719,112.869 685.719,116.281L 685.719,116.619 Z M 683.375,116.175C 683.375,113.467 682.822,111.327 681.716,109.756C 680.61,108.185 679.067,107.4 677.088,107.4C 675.654,107.4 674.424,107.747 673.397,108.441C 672.37,109.134 671.581,110.142 671.031,111.463L 671.031,121.65C 671.594,122.867 672.396,123.796 673.438,124.438C 674.479,125.079 675.709,125.4 677.125,125.4C 679.092,125.4 680.625,124.611 681.725,123.034C 682.825,121.457 683.375,119.171 683.375,116.175 Z "/>
		<path fill="#FFFFFF" fill-opacity="1" stroke-width="0.2" stroke-linejoin="round" d="M 693.163,109.381C 693.934,108.115 694.918,107.134 696.116,106.441C 697.314,105.747 698.621,105.4 700.038,105.4C 702.304,105.4 703.991,106.041 705.097,107.322C 706.203,108.603 706.765,110.523 706.781,113.081L 706.781,127L 704.456,127L 704.456,113.038C 704.444,111.138 704.043,109.723 703.253,108.794C 702.464,107.865 701.204,107.4 699.475,107.4C 698.029,107.4 696.75,107.855 695.638,108.766C 694.525,109.676 693.7,110.904 693.163,112.45L 693.163,127L 690.844,127L 690.844,97L 693.163,97L 693.163,109.381 Z "/>
		<path fill="#FFFFFF" fill-opacity="1" stroke-width="0.2" stroke-linejoin="round" d="M 719.613,123.531L 725.788,105.8L 728.306,105.8L 719.281,130.469L 718.813,131.563C 717.654,134.121 715.865,135.4 713.444,135.4C 712.886,135.4 712.286,135.313 711.644,135.138L 711.625,133.281L 712.838,133.4C 713.984,133.4 714.912,133.117 715.622,132.55C 716.333,131.983 716.934,131.008 717.425,129.625L 718.463,126.775L 710.494,105.8L 713.05,105.8L 719.613,123.531 Z "/>
	</g>
	<path fill="#FFFFFF" fill-opacity="0.203922" stroke-width="0.2" stroke-linejoin="round" d="M 0,103L 0,0L 179,0L 0,103 Z "/>
	<g>
		<path fill="#FFFFFF" fill-opacity="1" stroke-width="0.2" stroke-linejoin="round" d="M 22.4858,30.4921L 25.4842,22.1067L 26.6042,22.1067L 22.9233,32L 22.0396,32L 18.3383,22.1067L 19.4583,22.1067L 22.4858,30.4921 Z "/>
		<path fill="#FFFFFF" fill-opacity="1" stroke-width="0.2" stroke-linejoin="round" d="M 34.6046,18.56L 34.6046,19.4933L 34.4792,19.4933C 32.8925,19.4933 31.6437,19.9639 30.7327,20.905C 29.8217,21.8461 29.3176,23.1528 29.2204,24.825C 29.584,24.3175 30.0483,23.9242 30.6131,23.6452C 31.178,23.3662 31.8104,23.2267 32.5104,23.2267C 33.6771,23.2267 34.6051,23.6321 35.2944,24.4429C 35.9837,25.2537 36.3283,26.3145 36.3283,27.625C 36.3283,28.4942 36.1674,29.2773 35.8456,29.9744C 35.5238,30.6715 35.062,31.2144 34.4602,31.6033C 33.8584,31.9922 33.1715,32.1867 32.3996,32.1867C 31.1299,32.1867 30.0969,31.7239 29.3006,30.7983C 28.5044,29.8728 28.1062,28.6769 28.1062,27.2108L 28.1062,26.1113C 28.1062,23.7215 28.6473,21.8719 29.7294,20.5623C 30.8115,19.2527 32.3461,18.5853 34.3333,18.56L 34.6046,18.56 Z M 32.3354,24.16C 31.6432,24.16 30.9976,24.3671 30.3987,24.7813C 29.7999,25.1954 29.4003,25.7214 29.2,26.3592L 29.2,27.2983C 29.2,28.4631 29.4965,29.4134 30.0896,30.1494C 30.6826,30.8854 31.4526,31.2533 32.3996,31.2533C 33.2512,31.2533 33.9396,30.9131 34.4646,30.2325C 34.9896,29.5519 35.2521,28.6935 35.2521,27.6571C 35.2521,26.6013 34.9896,25.7544 34.4646,25.1167C 33.9396,24.4789 33.2299,24.16 32.3354,24.16 Z "/>
		<path fill="#FFFFFF" fill-opacity="1" stroke-width="0.2" stroke-linejoin="round" d="M 38.5479,31.2708C 38.5479,31.0589 38.6165,30.8785 38.7535,30.7298C 38.8906,30.581 39.0807,30.5067 39.3237,30.5067C 39.5668,30.5067 39.7583,30.581 39.8983,30.7298C 40.0383,30.8785 40.1083,31.0594 40.1083,31.2723C 40.1083,31.4852 40.0383,31.6597 39.8983,31.7958C 39.7583,31.9319 39.5668,32 39.3237,32C 39.0807,32 38.8906,31.9319 38.7535,31.7958C 38.6165,31.6597 38.5479,31.4847 38.5479,31.2708 Z "/>
		<path fill="#FFFFFF" fill-opacity="1" stroke-width="0.2" stroke-linejoin="round" d="M 43.6521,25.2129L 44.2996,18.7467L 50.935,18.7467L 50.935,19.68L 45.2388,19.68L 44.775,24.3292C 45.4847,23.8431 46.3169,23.6 47.2717,23.6C 48.4694,23.6 49.4237,23.9845 50.1344,24.7535C 50.8451,25.5226 51.2004,26.5468 51.2004,27.8262C 51.2004,29.2068 50.8538,30.2787 50.1606,31.0419C 49.4674,31.8051 48.4918,32.1867 47.2337,32.1867C 46.0807,32.1867 45.1454,31.8649 44.4279,31.2213C 43.7104,30.5776 43.3001,29.6764 43.1971,28.5175L 44.2442,28.5175C 44.3492,29.4178 44.6569,30.0988 45.1673,30.5606C 45.6777,31.0224 46.3665,31.2533 47.2337,31.2533C 48.1826,31.2533 48.8987,30.9548 49.3819,30.3579C 49.8651,29.761 50.1067,28.9113 50.1067,27.8088C 50.1067,26.8424 49.8364,26.0549 49.2958,25.4462C 48.7553,24.8376 48.0164,24.5333 47.0792,24.5333C 46.5639,24.5333 46.1147,24.5965 45.7317,24.7229C 45.3486,24.8493 44.9442,25.0943 44.5183,25.4579L 43.6521,25.2129 Z "/>
		<path fill="#FFFFFF" fill-opacity="1" stroke-width="0.2" stroke-linejoin="round" d="M 53.2946,31.2708C 53.2946,31.0589 53.3631,30.8785 53.5002,30.7298C 53.6373,30.581 53.8274,30.5067 54.0704,30.5067C 54.3135,30.5067 54.505,30.581 54.645,30.7298C 54.785,30.8785 54.855,31.0594 54.855,31.2723C 54.855,31.4852 54.785,31.6597 54.645,31.7958C 54.505,31.9319 54.3135,32 54.0704,32C 53.8274,32 53.6373,31.9319 53.5002,31.7958C 53.3631,31.6597 53.2946,31.4847 53.2946,31.2708 Z "/>
		<path fill="#FFFFFF" fill-opacity="1" stroke-width="0.2" stroke-linejoin="round" d="M 64.4742,25.9129C 64.0853,26.4827 63.6021,26.924 63.0246,27.2371C 62.4471,27.5501 61.821,27.7067 61.1463,27.7067C 60.3918,27.7067 59.7263,27.5112 59.1498,27.1204C 58.5733,26.7296 58.127,26.1895 57.811,25.5002C 57.4951,24.8109 57.3371,24.0569 57.3371,23.2383C 57.3371,22.3594 57.5058,21.5598 57.8431,20.8394C 58.1805,20.119 58.651,19.559 59.2548,19.1594C 59.8585,18.7598 60.5561,18.56 61.3475,18.56C 62.6775,18.56 63.7134,19.0291 64.4552,19.9673C 65.197,20.9055 65.5679,22.236 65.5679,23.9587L 65.5679,24.9475C 65.5679,27.3547 65.0575,29.1631 64.0367,30.3725C 63.0158,31.582 61.4564,32.1867 59.3583,32.1867L 59.16,32.1867L 59.1688,31.2533L 59.5508,31.2533C 61.1375,31.228 62.344,30.7721 63.1704,29.8854C 63.9968,28.9988 64.4314,27.6746 64.4742,25.9129 Z M 61.2833,26.7733C 62.0125,26.7733 62.6673,26.5546 63.2477,26.1171C 63.8281,25.6796 64.2399,25.1118 64.4829,24.4138L 64.4829,23.7808C 64.4829,22.4217 64.202,21.3673 63.64,20.6177C 63.0781,19.8681 62.3197,19.4933 61.365,19.4933C 60.5017,19.4933 59.7934,19.8438 59.2402,20.5448C 58.687,21.2458 58.4104,22.1281 58.4104,23.1917C 58.4104,24.2144 58.6763,25.0671 59.2081,25.7496C 59.7399,26.4321 60.4317,26.7733 61.2833,26.7733 Z "/>
		<path fill="#FFFFFF" fill-opacity="1" stroke-width="0.2" stroke-linejoin="round" d="M 68.6654,25.2129L 69.3129,18.7467L 75.9483,18.7467L 75.9483,19.68L 70.2521,19.68L 69.7883,24.3292C 70.4981,23.8431 71.3303,23.6 72.285,23.6C 73.4828,23.6 74.437,23.9845 75.1477,24.7535C 75.8584,25.5226 76.2138,26.5468 76.2138,27.8262C 76.2138,29.2068 75.8672,30.2787 75.174,31.0419C 74.4808,31.8051 73.5051,32.1867 72.2471,32.1867C 71.094,32.1867 70.1588,31.8649 69.4413,31.2213C 68.7238,30.5776 68.3135,29.6764 68.2104,28.5175L 69.2575,28.5175C 69.3625,29.4178 69.6702,30.0988 70.1806,30.5606C 70.691,31.0224 71.3799,31.2533 72.2471,31.2533C 73.196,31.2533 73.912,30.9548 74.3952,30.3579C 74.8784,29.761 75.12,28.9113 75.12,27.8088C 75.12,26.8424 74.8497,26.0549 74.3092,25.4462C 73.7686,24.8376 73.0297,24.5333 72.0925,24.5333C 71.5772,24.5333 71.1281,24.5965 70.745,24.7229C 70.3619,24.8493 69.9575,25.0943 69.5317,25.4579L 68.6654,25.2129 Z "/>
	</g>
	<rect x="912" y="193.008" fill="#FFFFFF" fill-opacity="0.403922" stroke-width="0.2" stroke-linejoin="round" width="1" height="38"/>
	<rect x="937" y="193.008" fill="#FFFFFF" fill-opacity="0.403922" stroke-width="0.2" stroke-linejoin="round" width="1" height="38"/>
	<rect x="906" y="199.008" fill="#FFFFFF" fill-opacity="0.403922" stroke-width="0.2" stroke-linejoin="round" width="38" height="1"/>
	<rect x="906" y="224.008" fill="#FFFFFF" fill-opacity="0.403922" stroke-width="0.2" stroke-linejoin="round" width="38" height="1"/>
	<path fill="#FFFFFF" fill-opacity="1" fill-rule="evenodd" stroke-width="0.2" stroke-linejoin="round" d="M 924.999,202.008C 919.478,202.008 915,206.485 915,212.009C 915,216.427 917.865,220.175 921.839,221.497C 922.339,221.589 922.521,221.28 922.521,221.015C 922.521,220.778 922.513,220.149 922.508,219.314C 919.726,219.919 919.139,217.974 919.139,217.974C 918.685,216.819 918.029,216.511 918.029,216.511C 917.121,215.891 918.098,215.903 918.098,215.903C 919.102,215.974 919.629,216.934 919.629,216.934C 920.521,218.462 921.97,218.021 922.54,217.765C 922.631,217.118 922.889,216.678 923.175,216.428C 920.954,216.175 918.62,215.317 918.62,211.485C 918.62,210.394 919.009,209.501 919.649,208.802C 919.546,208.549 919.203,207.532 919.747,206.156C 919.747,206.156 920.586,205.887 922.497,207.181C 923.294,206.959 924.15,206.848 925,206.844C 925.85,206.848 926.705,206.959 927.504,207.181C 929.413,205.887 930.251,206.156 930.251,206.156C 930.797,207.532 930.454,208.549 930.351,208.802C 930.992,209.501 931.379,210.394 931.379,211.485C 931.379,215.327 929.04,216.172 926.813,216.42C 927.172,216.729 927.492,217.339 927.492,218.272C 927.492,219.609 927.479,220.687 927.479,221.015C 927.479,221.283 927.66,221.594 928.167,221.496C 932.137,220.171 935,216.425 935,212.009C 935,206.485 930.522,202.008 924.999,202.008 Z "/>
	<path fill="#FFFFFF" fill-opacity="1" stroke-width="0.2" stroke-linejoin="round" d="M 479,213.008L 482,213.008L 482,220.008L 485,220.008L 485,213.008L 488,213.008L 488,210.008L 479,210.008M 485,205.008L 485,208.008L 490,208.008L 490,220.008L 493,220.008L 493,208.008L 498,208.008L 498,205.008L 485,205.008 Z "/>
	<rect x="475" y="193.008" fill="#FFFFFF" fill-opacity="0.403922" stroke-width="0.2" stroke-linejoin="round" width="1" height="38"/>
	<rect x="500" y="193.008" fill="#FFFFFF" fill-opacity="0.403922" stroke-width="0.2" stroke-linejoin="round" width="1" height="38"/>
	<rect x="469" y="199.008" fill="#FFFFFF" fill-opacity="0.403922" stroke-width="0.2" stroke-linejoin="round" width="38" height="1"/>
	<rect x="469" y="224.008" fill="#FFFFFF" fill-opacity="0.403922" stroke-width="0.2" stroke-linejoin="round" width="38" height="1"/>
	<path fill="#FFFFFF" fill-opacity="1" stroke-width="0.2" stroke-linejoin="round" d="M 875,209.008L 875,204.008L 882,204.008L 882,209.008L 892,209.008L 892,216.008L 887,216.008L 887,221.008L 880,221.008L 880,216.008L 870,216.008L 870,209.008L 875,209.008 Z M 885,216.008L 882,216.008L 882,219.008L 885,219.008L 885,216.008 Z M 877,209.008L 880,209.008L 880,206.008L 877,206.008L 877,209.008 Z M 875,214.008L 875,211.008L 872,211.008L 872,214.008L 875,214.008 Z M 887,211.008L 887,214.008L 890,214.008L 890,211.008L 887,211.008 Z M 882,211.008L 882,214.008L 885,214.008L 885,211.008L 882,211.008 Z M 877,211.008L 877,214.008L 880,214.008L 880,211.008L 877,211.008 Z "/>
	<rect x="868" y="193.008" fill="#FFFFFF" fill-opacity="0.403922" stroke-width="0.2" stroke-linejoin="round" width="1" height="38"/>
	<rect x="893" y="193.008" fill="#FFFFFF" fill-opacity="0.403922" stroke-width="0.2" stroke-linejoin="round" width="1" height="38"/>
	<rect x="862" y="199.008" fill="#FFFFFF" fill-opacity="0.403922" stroke-width="0.2" stroke-linejoin="round" width="38" height="1"/>
	<rect x="862" y="224.008" fill="#FFFFFF" fill-opacity="0.403922" stroke-width="0.2" stroke-linejoin="round" width="38" height="1"/>
	<path fill="#FFFFFF" fill-opacity="0.203922" stroke-width="0.2" stroke-linejoin="round" d="M 820.366,517.792L 1204,292.292L 1058.06,44.0081L 674.425,269.508L 820.366,517.792 Z "/>
	<rect x="623" y="193.008" fill="#FFFFFF" fill-opacity="0.403922" stroke-width="0.2" stroke-linejoin="round" width="1" height="38"/>
	<rect x="648" y="193.008" fill="#FFFFFF" fill-opacity="0.403922" stroke-width="0.2" stroke-linejoin="round" width="1" height="38"/>
	<rect x="617" y="199.008" fill="#FFFFFF" fill-opacity="0.403922" stroke-width="0.2" stroke-linejoin="round" width="38" height="1"/>
	<rect x="617" y="224.008" fill="#FFFFFF" fill-opacity="0.403922" stroke-width="0.2" stroke-linejoin="round" width="38" height="1"/>
	<path fill="#FFFFFF" fill-opacity="1" stroke-width="0.2" stroke-linejoin="round" d="M 644.596,206.697C 643.726,205.622 642.381,205.008 640.903,205.008L 626.954,205.008L 628.622,208.583L 626.393,219.008L 630.047,219.008L 632.278,208.583L 635.4,208.581L 633.172,219.008L 636.826,219.008L 639.055,208.581L 640.903,208.581C 641.303,208.581 641.628,208.711 641.816,208.945C 642.007,209.179 642.066,209.523 641.982,209.913L 640.036,219.008L 643.69,219.008L 645.477,210.66C 645.785,209.214 645.463,207.769 644.596,206.697 Z "/>
</svg>
