<?xml version="1.0" encoding="utf-8"?>
<!DOCTYPE svg PUBLIC "-//W3C//DTD SVG 1.1//EN" "http://www.w3.org/Graphics/SVG/1.1/DTD/svg11.dtd">
<svg xmlns="http://www.w3.org/2000/svg" xmlns:xlink="http://www.w3.org/1999/xlink" version="1.1" baseProfile="full" width="140" height="48" viewBox="0 0 140.00 48.00" enable-background="new 0 0 140.00 48.00" xml:space="preserve">
	<path fill="#F6F5F3" fill-opacity="1" stroke-width="0.2" stroke-linejoin="miter" d="M 2,3.8147e-006L 138,3.8147e-006C 139.105,3.8147e-006 140,0.895435 140,2L 140,46C 140,47.1046 139.105,48 138,48L 2,48C 0.89543,48 0,47.1046 0,46L 0,2C 0,0.895435 0.89543,3.8147e-006 2,3.8147e-006 Z "/>
	<g>
		<path fill="#F34235" fill-opacity="1" stroke-width="0.2" stroke-linejoin="miter" d="M 41.489,35.85C 41.2046,35.85 40.9202,35.7552 40.7306,35.5182L 21.818,15.7998L 21.818,34.8072C 21.818,35.376 21.344,35.85 20.7752,35.85C 20.2064,35.85 19.7324,35.376 19.7324,34.8072L 19.7324,13.1928C 19.7324,12.7662 19.9694,12.387 20.396,12.1974C 20.7752,12.0552 21.2492,12.15 21.5336,12.4818L 40.4462,32.2002L 40.4462,13.1928C 40.4462,12.624 40.9202,12.15 41.489,12.15C 42.0578,12.15 42.5318,12.624 42.5318,13.1928L 42.5318,34.8072C 42.5318,35.2338 42.2948,35.613 41.8682,35.8026C 41.7734,35.8026 41.6312,35.85 41.489,35.85 Z "/>
		<path fill="#2095F2" fill-opacity="1" stroke-width="0.2" stroke-linejoin="miter" d="M 119.177,35.85L 97.5631,35.85C 97.1839,35.85 96.8521,35.6604 96.6625,35.376C 96.4729,35.0442 96.4729,34.665 96.6151,34.3332L 107.422,12.7188C 107.612,12.387 107.944,12.15 108.37,12.15C 108.749,12.15 109.129,12.387 109.318,12.7188L 120.078,34.191C 120.173,34.3806 120.268,34.5702 120.268,34.7598C 120.22,35.376 119.746,35.85 119.177,35.85 Z M 99.2695,33.7644L 117.471,33.7644L 108.37,15.5628L 99.2695,33.7644 Z "/>
		<path fill="#4BAE4E" fill-opacity="1" stroke-width="0.2" stroke-linejoin="miter" d="M 84.5755,35.85C 84.1963,35.85 83.8171,35.613 83.6275,35.2812L 72.8677,13.6668C 72.6307,13.1454 72.8203,12.5292 73.3417,12.2448C 73.8631,12.0078 74.4793,12.1974 74.7637,12.7188L 84.6229,32.4372L 94.4821,12.7188C 94.7191,12.1974 95.3827,12.0078 95.9041,12.2448C 96.4255,12.4818 96.6151,13.1454 96.3781,13.6668L 85.5709,35.2812C 85.3339,35.613 85.0021,35.85 84.5755,35.85 Z "/>
		<path fill="#FEC005" fill-opacity="1" stroke-width="0.2" stroke-linejoin="miter" d="M 59.2639,35.85C 52.7228,35.85 47.414,30.5412 47.414,24C 47.414,17.4588 52.7228,12.15 59.2639,12.15C 65.8051,12.15 71.1139,17.4588 71.1139,24C 71.1139,30.5412 65.8051,35.85 59.2639,35.85 Z M 59.2639,14.2356C 53.9077,14.2356 49.4996,18.5964 49.4996,24C 49.4996,29.3562 53.8604,33.7644 59.2639,33.7644C 64.6201,33.7644 69.0283,29.4036 69.0283,24C 69.0283,18.6438 64.6675,14.2356 59.2639,14.2356 Z "/>
	</g>
</svg>
